<svg width="276" height="206" viewBox="0 0 276 206" fill="none" xmlns="http://www.w3.org/2000/svg">
<path d="M276 180.725H0V180.863H276V180.725Z" fill="#EBEBEB"/>
<path d="M199.824 185.108H181.542V185.246H199.824V185.108Z" fill="#EBEBEB"/>
<path d="M243.388 185.179H220.679V185.317H243.388V185.179Z" fill="#EBEBEB"/>
<path d="M207.525 188.784H196.932V188.922H207.525V188.784Z" fill="#EBEBEB"/>
<path d="M124.57 187.741H96.0482V187.879H124.57V187.741Z" fill="#EBEBEB"/>
<path d="M91.1354 187.741H72.1521V187.879H91.1354V187.741Z" fill="#EBEBEB"/>
<path d="M60.7922 185.411H34.9365V185.549H60.7922V185.411Z" fill="#EBEBEB"/>
<path d="M130.824 156.106H24.2381C23.4031 156.104 22.6028 155.771 22.0129 155.18C21.423 154.59 21.0917 153.789 21.0917 152.954V3.12432C21.0989 2.29413 21.4335 1.50032 22.0226 0.915337C22.6117 0.330349 23.4079 0.00142217 24.2381 0H130.824C131.66 0 132.461 0.332076 133.052 0.923176C133.644 1.51428 133.976 2.31598 133.976 3.15192V152.954C133.976 153.79 133.644 154.591 133.052 155.182C132.461 155.774 131.66 156.106 130.824 156.106ZM24.2381 0.1104C23.4397 0.111863 22.6745 0.430044 22.1105 0.995105C21.5465 1.56017 21.2297 2.32593 21.2297 3.12432V152.954C21.2297 153.752 21.5465 154.518 22.1105 155.083C22.6745 155.648 23.4397 155.966 24.2381 155.968H130.824C131.623 155.966 132.388 155.648 132.953 155.083C133.518 154.518 133.836 153.753 133.838 152.954V3.12432C133.836 2.32543 133.518 1.55967 132.953 0.994768C132.388 0.429865 131.623 0.11186 130.824 0.1104H24.2381Z" fill="#EBEBEB"/>
<path d="M250.227 156.106H143.636C142.801 156.104 142 155.772 141.409 155.181C140.818 154.59 140.486 153.789 140.484 152.954V3.12432C140.493 2.29362 140.829 1.49983 141.419 0.914991C142.009 0.330156 142.806 0.00140666 143.636 0H250.227C251.057 0.00287288 251.851 0.332442 252.439 0.917274C253.027 1.50211 253.361 2.29508 253.368 3.12432V152.954C253.368 153.788 253.038 154.588 252.449 155.179C251.86 155.769 251.062 156.103 250.227 156.106ZM143.636 0.1104C142.837 0.11186 142.072 0.429865 141.507 0.994768C140.942 1.55967 140.624 2.32543 140.622 3.12432V152.954C140.624 153.753 140.942 154.518 141.507 155.083C142.072 155.648 142.837 155.966 143.636 155.968H250.227C251.026 155.966 251.792 155.648 252.357 155.083C252.922 154.518 253.24 153.753 253.241 152.954V3.12432C253.24 2.32543 252.922 1.55967 252.357 0.994768C251.792 0.429865 251.026 0.11186 250.227 0.1104H143.636Z" fill="#EBEBEB"/>
<path d="M208.529 92.0626C208.529 95.7996 205.929 97.268 202.728 97.268C199.526 97.268 196.932 95.7996 196.932 92.0626C196.932 88.3256 199.526 85.3006 202.728 85.3006C205.929 85.3006 208.529 88.32 208.529 92.0626Z" fill="#E0E0E0"/>
<path d="M196.947 84.2407C196.947 84.2407 196.683 87.5913 198.438 89.2915L201.811 86.8903C201.082 85.2895 196.947 84.2407 196.947 84.2407Z" fill="#E0E0E0"/>
<path d="M209.948 84.6934C209.948 84.6934 206.133 84.7651 204.389 86.6806L207.442 89.7994C209.208 88.9106 209.948 84.6934 209.948 84.6934Z" fill="#E0E0E0"/>
<path d="M198.819 94.6349C198.592 99.7906 199.57 114.634 200.905 116.748C199.294 116.29 198.328 117.482 199.04 118.702H223.493C223.493 118.702 226.435 103.042 211.349 101.75C208.501 98.6866 207.248 93.5033 207.248 93.5033L198.819 94.6349Z" fill="#E0E0E0"/>
<path d="M222.208 114.722C222.882 115.091 223.668 115.199 224.416 115.026C225.253 114.88 226.054 114.573 226.773 114.12C228.252 113.214 229.352 111.802 229.87 110.146C230.318 108.46 230.2 106.674 229.533 105.062C229.207 104.231 228.8 103.434 228.319 102.683C228.092 102.291 227.8 101.938 227.551 101.579C227.303 101.22 226.966 100.79 226.696 100.376C226.135 99.5397 225.658 98.6504 225.272 97.7206C224.869 96.739 224.639 95.695 224.593 94.6349C224.541 93.4935 224.823 92.3618 225.404 91.3781C226.007 90.3853 226.885 89.5894 227.932 89.0873C229.945 88.2074 232.203 88.059 234.313 88.6678C235.336 88.9301 236.324 89.3137 237.256 89.8104C238.176 90.313 239.05 90.8968 239.867 91.5547C240.183 91.808 240.387 92.1768 240.432 92.58C240.477 92.9832 240.36 93.3878 240.107 93.7048C239.853 94.0217 239.485 94.2251 239.081 94.2701C238.678 94.3152 238.274 94.1982 237.957 93.9449C237.914 93.911 237.873 93.8741 237.835 93.8345C236.645 92.6298 235.198 91.7106 233.601 91.1463C232.075 90.581 230.399 90.5693 228.865 91.1131C228.171 91.3831 227.575 91.8564 227.154 92.4711C226.742 93.1125 226.529 93.8615 226.541 94.6239C226.547 95.4619 226.696 96.2927 226.983 97.0803C227.292 97.9106 227.68 98.7092 228.142 99.4649C228.374 99.8568 228.633 100.221 228.887 100.608C229.141 100.994 229.439 101.413 229.704 101.85C230.231 102.7 230.67 103.603 231.012 104.543C231.759 106.484 231.856 108.615 231.288 110.615C230.674 112.617 229.354 114.327 227.573 115.429C226.697 116.002 225.719 116.403 224.692 116.61C224.147 116.721 223.589 116.749 223.036 116.693C222.443 116.646 221.866 116.471 221.347 116.179C221.157 116.069 221.018 115.887 220.962 115.675C220.905 115.462 220.936 115.235 221.046 115.045C221.157 114.855 221.338 114.716 221.551 114.66C221.764 114.603 221.99 114.634 222.18 114.744H222.208V114.722Z" fill="#E0E0E0"/>
<path d="M124.785 47.2291C126.441 40.7265 125.58 37.0944 125.58 37.0944C125.58 37.0944 124.349 35.5709 125.055 34.1025C126.091 34.6178 127.086 35.2121 128.03 35.88C128.649 35.1734 133.55 35.5709 135.085 36.0621C134.412 35.1127 134.93 33.7934 134.93 33.7934C136.366 34.4977 137.523 35.6642 138.215 37.1054C139.413 39.5397 139.181 44.999 139.181 44.999C139.181 44.999 157.502 39.2969 159.009 58.3409H125.889C125.889 58.3409 123.443 52.4731 124.785 47.2291Z" fill="#E0E0E0"/>
<path d="M43.459 139.601C44.563 139.049 47.0636 138.58 49.2385 136.388C49.4372 133.672 53.0418 130.404 58.9702 130.758C65.0422 131.122 67.7636 146.617 62.7018 141.985C63.883 145.805 64.2363 154.505 74.774 162.669C82.3419 168.531 82.3806 179.891 76.43 179.891H47.6101C44.9715 179.891 47.6101 174.951 50.635 175.348C53.395 173.372 52.8762 161.25 52.8762 161.25C52.8762 161.25 48.7362 149.106 51.5127 144.933C48.3001 146.567 40.9916 145.099 43.459 139.601Z" fill="#E0E0E0"/>
<path d="M87.5135 160.925C89.6166 167.151 86.9173 174.807 78.814 173.157L79.4101 174.813C88.4132 180.057 96.9692 168.36 87.5135 160.925Z" fill="#E0E0E0"/>
<path d="M97.2397 120.667V179.654H30.3207V120.667H97.2397ZM98.3106 119.602H29.2554V180.725H98.3106V119.602Z" fill="#F0F0F0"/>
<path d="M33.1028 119.602H32.0375V180.725H33.1028V119.602Z" fill="#F0F0F0"/>
<path d="M45.5837 119.602H44.5183V180.725H45.5837V119.602Z" fill="#F0F0F0"/>
<path d="M58.0701 119.602H57.0048V180.725H58.0701V119.602Z" fill="#F0F0F0"/>
<path d="M70.5566 119.602H69.4912V180.725H70.5566V119.602Z" fill="#F0F0F0"/>
<path d="M83.0431 119.602H81.9778V180.725H83.0431V119.602Z" fill="#F0F0F0"/>
<path d="M95.524 119.602H94.4586V180.725H95.524V119.602Z" fill="#F0F0F0"/>
<path d="M39.9261 150.161H29.5981V160.19H39.9261V150.161Z" fill="#F0F0F0"/>
<path d="M171.462 120.667V179.654H104.537V120.667H171.462ZM172.527 119.602H103.472V180.725H172.527V119.602Z" fill="#F0F0F0"/>
<path d="M107.32 119.602H106.254V180.725H107.32V119.602Z" fill="#F0F0F0"/>
<path d="M119.8 119.602H118.735V180.725H119.8V119.602Z" fill="#F0F0F0"/>
<path d="M132.287 119.602H131.222V180.725H132.287V119.602Z" fill="#F0F0F0"/>
<path d="M144.773 119.602H143.708V180.725H144.773V119.602Z" fill="#F0F0F0"/>
<path d="M157.26 119.602H156.194V180.725H157.26V119.602Z" fill="#F0F0F0"/>
<path d="M169.745 119.602H168.68V180.725H169.745V119.602Z" fill="#F0F0F0"/>
<path d="M114.143 150.161H103.815V160.19H114.143V150.161Z" fill="#F0F0F0"/>
<path d="M245.679 120.667V179.654H178.76V120.667H245.679ZM246.744 119.602H177.689V180.725H246.744V119.602Z" fill="#F0F0F0"/>
<path d="M181.536 119.602H180.471V180.725H181.536V119.602Z" fill="#F0F0F0"/>
<path d="M194.017 119.602H192.952V180.725H194.017V119.602Z" fill="#F0F0F0"/>
<path d="M206.504 119.602H205.438V180.725H206.504V119.602Z" fill="#F0F0F0"/>
<path d="M218.99 119.602H217.925V180.725H218.99V119.602Z" fill="#F0F0F0"/>
<path d="M231.475 119.602H230.41V180.725H231.475V119.602Z" fill="#F0F0F0"/>
<path d="M243.962 119.602H242.896V180.725H243.962V119.602Z" fill="#F0F0F0"/>
<path d="M188.359 150.161H178.031V160.19H188.359V150.161Z" fill="#F0F0F0"/>
<path d="M97.2397 59.5442V118.531H30.3207V59.5442H97.2397ZM98.3106 58.4733H29.2554V119.596H98.3106V58.4733Z" fill="#F0F0F0"/>
<path d="M33.1028 58.4733H32.0375V119.596H33.1028V58.4733Z" fill="#F0F0F0"/>
<path d="M45.5837 58.4733H44.5183V119.596H45.5837V58.4733Z" fill="#F0F0F0"/>
<path d="M58.0701 58.4733H57.0048V119.596H58.0701V58.4733Z" fill="#F0F0F0"/>
<path d="M70.5566 58.4733H69.4912V119.596H70.5566V58.4733Z" fill="#F0F0F0"/>
<path d="M83.0431 58.4733H81.9778V119.596H83.0431V58.4733Z" fill="#F0F0F0"/>
<path d="M95.524 58.4733H94.4586V119.596H95.524V58.4733Z" fill="#F0F0F0"/>
<path d="M39.9261 89.0376H29.5981V99.0674H39.9261V89.0376Z" fill="#F0F0F0"/>
<path d="M171.462 59.5442V118.531H104.537V59.5442H171.462ZM172.527 58.4733H103.472V119.596H172.527V58.4733Z" fill="#F0F0F0"/>
<path d="M107.32 58.4733H106.254V119.596H107.32V58.4733Z" fill="#F0F0F0"/>
<path d="M119.8 58.4733H118.735V119.596H119.8V58.4733Z" fill="#F0F0F0"/>
<path d="M132.287 58.4733H131.222V119.596H132.287V58.4733Z" fill="#F0F0F0"/>
<path d="M144.773 58.4733H143.708V119.596H144.773V58.4733Z" fill="#F0F0F0"/>
<path d="M157.26 58.4733H156.194V119.596H157.26V58.4733Z" fill="#F0F0F0"/>
<path d="M169.745 58.4733H168.68V119.596H169.745V58.4733Z" fill="#F0F0F0"/>
<path d="M114.143 89.0376H103.815V99.0674H114.143V89.0376Z" fill="#F0F0F0"/>
<path d="M245.679 59.5442V118.531H178.76V59.5442H245.679ZM246.744 58.4733H177.689V119.596H246.744V58.4733Z" fill="#F0F0F0"/>
<path d="M181.536 58.4733H180.471V119.596H181.536V58.4733Z" fill="#F0F0F0"/>
<path d="M194.017 58.4733H192.952V119.596H194.017V58.4733Z" fill="#F0F0F0"/>
<path d="M206.504 58.4733H205.438V119.596H206.504V58.4733Z" fill="#F0F0F0"/>
<path d="M218.99 58.4733H217.925V119.596H218.99V58.4733Z" fill="#F0F0F0"/>
<path d="M231.475 58.4733H230.41V119.596H231.475V58.4733Z" fill="#F0F0F0"/>
<path d="M243.962 58.4733H242.896V119.596H243.962V58.4733Z" fill="#F0F0F0"/>
<path d="M188.359 89.0376H178.031V99.0674H188.359V89.0376Z" fill="#F0F0F0"/>
<path d="M97.2397 16.7698V57.408H30.3207V16.7698H97.2397ZM98.3106 15.6989H29.2554V58.512H98.3106V15.6989Z" fill="#F0F0F0"/>
<path d="M33.1028 15.7044H32.0375V58.4899H33.1028V15.7044Z" fill="#F0F0F0"/>
<path d="M45.5837 15.7044H44.5183V58.4899H45.5837V15.7044Z" fill="#F0F0F0"/>
<path d="M58.0701 15.7044H57.0048V58.4899H58.0701V15.7044Z" fill="#F0F0F0"/>
<path d="M70.5566 15.7044H69.4912V58.4899H70.5566V15.7044Z" fill="#F0F0F0"/>
<path d="M83.0431 15.7044H81.9778V58.4899H83.0431V15.7044Z" fill="#F0F0F0"/>
<path d="M95.524 15.7044H94.4586V58.4899H95.524V15.7044Z" fill="#F0F0F0"/>
<path d="M39.9261 27.9312H29.5981V37.9611H39.9261V27.9312Z" fill="#F0F0F0"/>
<path d="M171.462 16.7698V57.408H104.537V16.7698H171.462ZM172.527 15.6989H103.472V58.512H172.527V15.6989Z" fill="#F0F0F0"/>
<path d="M107.32 15.7044H106.254V58.4899H107.32V15.7044Z" fill="#F0F0F0"/>
<path d="M119.8 15.7044H118.735V58.4899H119.8V15.7044Z" fill="#F0F0F0"/>
<path d="M132.287 15.7044H131.222V58.4899H132.287V15.7044Z" fill="#F0F0F0"/>
<path d="M144.773 15.7044H143.708V58.4899H144.773V15.7044Z" fill="#F0F0F0"/>
<path d="M157.26 15.7044H156.194V58.4899H157.26V15.7044Z" fill="#F0F0F0"/>
<path d="M169.745 15.7044H168.68V58.4899H169.745V15.7044Z" fill="#F0F0F0"/>
<path d="M114.143 27.9312H103.815V37.9611H114.143V27.9312Z" fill="#F0F0F0"/>
<path d="M245.679 16.7698V57.408H178.76V16.7698H245.679ZM246.744 15.6989H177.689V58.512H246.744V15.6989Z" fill="#F0F0F0"/>
<path d="M181.536 15.7044H180.471V58.4899H181.536V15.7044Z" fill="#F0F0F0"/>
<path d="M194.017 15.7044H192.952V58.4899H194.017V15.7044Z" fill="#F0F0F0"/>
<path d="M206.504 15.7044H205.438V58.4899H206.504V15.7044Z" fill="#F0F0F0"/>
<path d="M218.99 15.7044H217.925V58.4899H218.99V15.7044Z" fill="#F0F0F0"/>
<path d="M231.475 15.7044H230.41V58.4899H231.475V15.7044Z" fill="#F0F0F0"/>
<path d="M243.962 15.7044H242.896V58.4899H243.962V15.7044Z" fill="#F0F0F0"/>
<path d="M188.359 27.9312H178.031V37.9611H188.359V27.9312Z" fill="#F0F0F0"/>
<path d="M138.001 205.653C197.11 205.653 245.028 202.856 245.028 199.404C245.028 195.953 197.11 193.156 138.001 193.156C78.8913 193.156 30.9735 195.953 30.9735 199.404C30.9735 202.856 78.8913 205.653 138.001 205.653Z" fill="#F5F5F5"/>
<path d="M73.6645 29.6203C68.3543 33.418 77.2415 41.3724 69.3203 43.1608C61.3991 44.9493 67.1123 58.81 74.7023 59.627C82.2923 60.444 96.556 62.6244 98.3941 51.2918C100.05 40.9473 94.7785 41.0743 95.4299 36.7908C96.2248 31.5633 94.7178 28.2624 89.9099 25.4803C83.3521 21.6494 72.0085 21.0864 73.6645 29.6203Z" fill="#263238"/>
<path d="M99.0123 196.893C94.3148 196.534 91.8915 193.321 92.0626 189.916C92.151 188.039 86.1452 187.873 86.1452 187.873C87.3762 193.691 86.2225 194.497 85.9023 196.026C85.5822 197.555 85.7588 199.189 87.0063 199.222C88.4967 199.255 89.1757 198.974 91.0249 199.046C93.1887 199.128 94.646 199.217 98.4824 199.222C100.011 199.222 101.099 197.064 99.0123 196.893Z" fill="#92E3A9"/>
<path d="M98.1573 87.3098C98.1573 87.3098 98.621 114.573 95.6347 135.113C95.5243 152.495 92.4717 190.71 92.4717 190.71C90.422 191.195 88.2851 191.174 86.2452 190.65C86.2452 190.65 77.4132 162.741 80.2228 134.82C75.8068 105.564 75.9504 87.3098 75.9504 87.3098H98.1573Z" fill="#263238"/>
<path opacity="0.2" d="M76.4736 100.873C77.0256 109.059 78.0744 120.645 80.2217 134.815C80.012 136.913 79.8629 139.016 79.7801 141.102C89.142 124.272 90.2792 97.704 76.4736 100.873Z" fill="black"/>
<path d="M61.6422 196.413C61.4765 193.964 61.6624 191.505 62.1942 189.11C62.1942 189.11 57.0109 188.006 56.8453 189.816C56.5528 193.128 54.7091 196.208 50.6243 196.744C48.2893 197.047 49.1615 199.222 50.8285 199.222C55.0017 199.222 53.5885 199.156 55.9566 199.073C57.9825 199.007 58.3909 199.255 60.0193 199.222C61.3497 199.195 61.6533 197.898 61.6422 196.413Z" fill="#92E3A9"/>
<path d="M90.0697 87.3098C90.0697 87.3098 82.1319 125.199 76.9045 141.406C71.4231 158.402 62.6187 189.402 62.5525 190.677C60.1513 191.13 57.8936 191.296 56.0168 190.677C56.0168 190.677 52.9587 155.824 59.9802 137.371C61.7466 98.8521 72.1242 87.3374 72.1242 87.3374L90.0697 87.3098Z" fill="#263238"/>
<path d="M91.549 52.2302C91.524 52.2307 91.4993 52.2249 91.4771 52.2133C91.4549 52.2018 91.436 52.1848 91.4221 52.164C91.3613 52.0757 91.2896 51.9873 91.2233 51.899C90.7652 51.3084 90.2021 50.5742 90.7597 49.7241C91.411 48.7361 92.7579 49.0728 93.746 49.3212L94.1545 49.4205C94.894 49.6462 95.6884 49.6131 96.4066 49.3267C97.3009 48.8851 97.7977 47.9577 98.2779 47.0525C98.564 46.459 98.9218 45.9028 99.3433 45.3965C99.4592 45.264 99.5806 45.137 99.7076 45.0101C100.193 44.5745 100.571 44.0322 100.812 43.4258C100.817 43.4065 100.826 43.3883 100.838 43.3726C100.85 43.3569 100.866 43.344 100.883 43.3346C100.901 43.3253 100.921 43.3197 100.941 43.3183C100.96 43.3169 100.98 43.3197 100.999 43.3265C101.019 43.3322 101.037 43.3417 101.053 43.3545C101.069 43.3673 101.082 43.3832 101.092 43.4012C101.102 43.4191 101.108 43.4389 101.11 43.4592C101.112 43.4795 101.11 43.5001 101.104 43.5197C100.848 44.1751 100.439 44.7599 99.9118 45.2253L99.5585 45.6007C99.1536 46.0903 98.8106 46.6279 98.5373 47.2015C98.035 48.1454 97.5161 49.1225 96.5281 49.6082C95.7483 49.9255 94.8834 49.9664 94.0772 49.7241L93.6577 49.6248C92.7137 49.3874 91.538 49.0728 91.0025 49.9008C90.5665 50.5632 91.0025 51.1262 91.4552 51.7169C91.5214 51.8107 91.5932 51.899 91.6594 51.9873C91.6834 52.0203 91.6934 52.0615 91.6872 52.1018C91.681 52.1421 91.6591 52.1784 91.6263 52.2026C91.6036 52.2189 91.5769 52.2284 91.549 52.2302Z" fill="white"/>
<path d="M104.576 48.1013L103.472 46.1251C103.081 45.4098 102.51 44.8087 101.816 44.3808L100.491 43.5749C100.066 43.3159 99.5636 43.2144 99.0713 43.2881C98.579 43.3617 98.1282 43.6058 97.7975 43.9778L96.7707 45.1315C96.5827 45.3412 96.4384 45.5864 96.3461 45.8526C96.2539 46.1187 96.2157 46.4006 96.2337 46.6818C96.2517 46.9629 96.3255 47.2376 96.4509 47.4899C96.5763 47.7421 96.7507 47.9669 96.9639 48.1509L97.952 49.0121C97.952 49.0121 100.414 51.7389 103.284 52.2744L103.792 51.6285C104.189 51.1426 104.467 50.5705 104.603 49.958C104.739 49.3455 104.73 48.7096 104.576 48.1013Z" fill="#FFC3BD"/>
<path d="M97.1192 55.3546L97.6325 56.006C97.8312 56.2544 98.041 56.5083 98.2563 56.7567C98.6924 57.2535 99.1284 57.7503 99.5921 58.214C100.474 59.1312 101.432 59.9715 102.457 60.7256C103.383 61.4166 104.392 61.9896 105.46 62.4312C105.953 62.6219 106.458 62.7787 106.972 62.9004C107.221 62.9593 107.474 63.0017 107.729 63.0274H107.822H107.872C107.872 63.0274 107.922 63.0274 107.872 63.0274H107.751H107.497L107.215 63.0771C106.989 63.1228 106.768 63.195 106.558 63.2924C106.318 63.3939 106.09 63.5236 105.879 63.6788C105.678 63.8241 105.493 63.9907 105.327 64.1756C105.192 64.3286 105.07 64.493 104.963 64.6668C104.887 64.799 104.819 64.9354 104.759 65.0753C104.718 65.1745 104.683 65.2759 104.654 65.3789C104.634 65.4495 104.619 65.5215 104.61 65.5942C104.602 65.662 104.602 65.7306 104.61 65.7984C104.61 65.8923 104.61 65.8481 104.643 65.7984C104.664 65.5855 104.664 65.371 104.643 65.1581C104.567 64.5153 104.452 63.8775 104.301 63.2482C104.003 61.8682 103.589 60.4164 103.164 58.9536L100.448 50.0554V50.0278C100.287 49.4952 100.321 48.9228 100.545 48.4132C100.768 47.9036 101.165 47.4902 101.665 47.247C102.166 47.0038 102.736 46.9467 103.275 47.0861C103.813 47.2255 104.285 47.5521 104.604 48.0075C106.46 50.6779 108.131 53.472 109.605 56.3703C110.378 57.8661 111.072 59.4009 111.686 60.9684C112.023 61.8379 112.309 62.7263 112.542 63.6291C112.685 64.1875 112.787 64.7558 112.846 65.3292C112.878 65.7242 112.878 66.1211 112.846 66.516C112.812 67.16 112.666 67.7932 112.415 68.3873C112.318 68.6175 112.206 68.8406 112.078 69.0552C111.74 69.6111 111.295 70.0949 110.77 70.4794C110.481 70.6977 110.168 70.8829 109.837 71.0314C109.536 71.164 109.221 71.264 108.899 71.3295C108.757 71.361 108.613 71.385 108.468 71.4012C108.336 71.4012 108.203 71.4123 108.071 71.4344H107.789H107.491C106.939 71.4344 106.42 71.4344 105.89 71.3792C104.843 71.2916 103.807 71.1068 102.794 70.8272C100.868 70.2737 99.0344 69.4405 97.351 68.3542C95.7582 67.3403 94.2779 66.1597 92.935 64.8324C92.2837 64.1811 91.6544 63.5132 91.0692 62.8066C90.7767 62.4533 90.4896 62.0945 90.2081 61.7026L89.7941 61.123L89.5789 60.8194L89.3305 60.444C88.681 59.4443 88.4394 58.2336 88.6556 57.0611C88.8718 55.8887 89.5293 54.8437 90.4926 54.1414C91.456 53.439 92.6519 53.1327 93.8343 53.2855C95.0167 53.4383 96.0955 54.0385 96.8487 54.9627L97.1192 55.3546Z" fill="#FFC3BD"/>
<path d="M99.2159 60.7641C99.122 62.9721 102.622 68.1113 98.2995 71.081C99.1055 72.8861 99.7899 85.1239 98.156 87.3098C95.7714 89.0652 82.8601 88.7229 72.1568 87.3098C71.7042 82.8938 74.1385 73.7196 71.1577 59.4283C70.9933 58.6454 70.9958 57.8366 71.1651 57.0547C71.3344 56.2728 71.6666 55.5354 72.14 54.8906C72.6135 54.2457 73.2176 53.708 73.9129 53.3123C74.6082 52.9167 75.3792 52.6721 76.1754 52.5945C77.0751 52.5007 78.0246 52.4289 79.0016 52.3793C82.4105 52.1361 85.8324 52.1361 89.2412 52.3793C90.3452 52.4786 91.4879 52.6221 92.5532 52.7767C94.4586 53.0401 96.1974 54.0046 97.4295 55.4817C98.6616 56.9589 99.2986 58.8424 99.2159 60.7641Z" fill="#92E3A9"/>
<path d="M78.6761 40.848C79.4931 44.16 80.288 49.5199 78.9908 52.3793C78.9908 52.3793 83.3461 52.5946 89.5616 57.557C92.4872 53.257 89.6113 52.4179 89.6113 52.4179C87.0279 51.8107 86.6139 48.6698 86.6194 46.2189L78.6761 40.848Z" fill="#FFC3BD"/>
<path opacity="0.2" d="M86.6196 46.219L82.1042 43.1664C82.0644 43.8578 82.2031 44.5479 82.5072 45.1702C83.4573 46.9508 85.0056 48.3387 86.879 49.0894C86.6926 48.1442 86.6056 47.1822 86.6196 46.219Z" fill="black"/>
<path d="M76.5299 34.8091C77.816 40.1635 78.2466 42.4598 81.4261 44.7451C86.2009 48.2117 92.3667 45.4737 92.6759 39.8433C92.9574 34.776 90.8101 26.8658 85.2294 25.6293C79.6487 24.3929 75.2492 29.4492 76.5299 34.8091Z" fill="#FFC3BD"/>
<path d="M84.561 37.0447C84.6383 37.4863 84.9364 37.8009 85.2234 37.7513C85.5105 37.7016 85.6816 37.2986 85.6043 36.8625C85.527 36.4265 85.229 36.1008 84.9419 36.156C84.6549 36.2112 84.4838 36.6031 84.561 37.0447Z" fill="#263238"/>
<path d="M89.9758 36.1615C90.0531 36.6031 90.3512 36.9177 90.6382 36.868C90.9253 36.8184 91.0964 36.4154 91.0191 35.9793C90.9418 35.5432 90.6438 35.2176 90.3567 35.2728C90.0697 35.328 89.9206 35.7199 89.9758 36.1615Z" fill="#263238"/>
<path d="M90.2515 35.328L91.2561 34.8367C91.2561 34.8367 90.8642 35.7475 90.2515 35.328Z" fill="#263238"/>
<path d="M88.6787 36.5203C89.2509 37.4563 89.9472 38.3105 90.7487 39.0595C90.5512 39.2565 90.3129 39.408 90.0507 39.5033C89.7885 39.5987 89.5087 39.6356 89.2307 39.6115L88.6787 36.5203Z" fill="#ED847E"/>
<path d="M86.984 41.7091C87.2356 41.7078 87.4867 41.6856 87.7347 41.6429C87.769 41.6362 87.7993 41.6162 87.819 41.5872C87.8386 41.5583 87.846 41.5227 87.8396 41.4883C87.8369 41.4715 87.8309 41.4554 87.8219 41.441C87.8129 41.4266 87.8011 41.4141 87.7872 41.4043C87.7733 41.3946 87.7576 41.3877 87.741 41.3841C87.7244 41.3805 87.7072 41.3803 87.6905 41.3834C87.1438 41.4927 86.5791 41.4717 86.0421 41.3221C85.505 41.1725 85.0107 40.8985 84.5993 40.5223C84.587 40.51 84.5724 40.5001 84.5563 40.4935C84.5402 40.4868 84.5229 40.4833 84.5055 40.4833C84.488 40.4833 84.4708 40.4868 84.4547 40.4935C84.4386 40.5001 84.424 40.51 84.4116 40.5223C84.3883 40.5469 84.3754 40.5795 84.3754 40.6134C84.3754 40.6473 84.3883 40.6799 84.4116 40.7045C85.105 41.3624 86.0282 41.723 86.984 41.7091Z" fill="#263238"/>
<path d="M76.1373 39.7992C76.3424 40.2574 76.6423 40.667 77.0172 41.0009C77.392 41.3349 77.8334 41.5857 78.3121 41.7367C79.5321 42.0735 80.1393 40.7321 79.7915 39.3742C79.4769 38.1487 78.4667 36.4983 77.2413 36.7632C76.0158 37.0282 75.5742 38.5959 76.1373 39.7992Z" fill="#FFC3BD"/>
<path d="M83.0207 34.2847C83.0541 34.2742 83.085 34.257 83.1115 34.2342C83.1381 34.2115 83.1598 34.1836 83.1753 34.1522C83.3142 33.8526 83.5213 33.5897 83.7802 33.3845C84.039 33.1794 84.3423 33.0377 84.6657 32.9709C84.6998 32.967 84.7327 32.9563 84.7627 32.9396C84.7926 32.9228 84.819 32.9004 84.8402 32.8735C84.8615 32.8466 84.8773 32.8157 84.8866 32.7827C84.896 32.7497 84.8987 32.7152 84.8948 32.6811C84.8908 32.6471 84.8801 32.6141 84.8634 32.5842C84.8467 32.5542 84.8242 32.5279 84.7973 32.5066C84.7704 32.4853 84.7396 32.4695 84.7066 32.4602C84.6736 32.4508 84.639 32.4481 84.605 32.4521C84.1943 32.5256 83.8074 32.697 83.4769 32.9516C83.1464 33.2062 82.882 33.5366 82.7061 33.9149C82.6752 33.9772 82.67 34.0491 82.6917 34.1152C82.7134 34.1813 82.7602 34.2363 82.822 34.2681C82.8839 34.2982 82.9547 34.3041 83.0207 34.2847Z" fill="#263238"/>
<path d="M92.0019 32.855C92.0692 32.8442 92.1302 32.8088 92.173 32.7557C92.2152 32.6999 92.2336 32.6298 92.2243 32.5605C92.215 32.4913 92.1787 32.4285 92.1233 32.3858C91.7961 32.1258 91.4115 31.9476 91.0016 31.866C90.5917 31.7844 90.1682 31.8017 89.7663 31.9166C89.7303 31.9255 89.6966 31.9418 89.6674 31.9645C89.6381 31.9872 89.6139 32.0157 89.5964 32.0483C89.5788 32.0809 89.5683 32.1168 89.5655 32.1538C89.5626 32.1907 89.5676 32.2278 89.58 32.2627C89.5924 32.2976 89.612 32.3295 89.6375 32.3563C89.663 32.3832 89.6938 32.4044 89.728 32.4186C89.7622 32.4328 89.799 32.4397 89.836 32.4388C89.873 32.4379 89.9095 32.4293 89.9429 32.4134C90.2618 32.3263 90.5969 32.3164 90.9204 32.3846C91.2439 32.4527 91.5465 32.597 91.8032 32.8054C91.8313 32.8264 91.8634 32.8416 91.8975 32.8502C91.9317 32.8587 91.9671 32.8604 92.0019 32.855Z" fill="#263238"/>
<path d="M84.8156 36.2002L85.8257 35.7089C85.8257 35.7089 85.4283 36.6307 84.8156 36.2002Z" fill="#263238"/>
<path d="M91.9137 93.9063C91.9137 93.9063 94.9884 84.169 87.3818 81.7623C82.734 80.305 81.089 82.1597 81.089 82.1597L82.193 91.4333C85.3063 95.082 90.7987 96.876 94.7675 97.5053C97.6545 97.9911 91.9137 93.9063 91.9137 93.9063Z" fill="#E0E0E0"/>
<path d="M83.5559 68.2107C83.2743 71.7159 90.4945 73.3056 92.835 72.853C92.835 72.853 95.3411 75.7178 97.1019 74.7187C97.8692 74.2882 95.7661 72.9247 94.8111 71.5006C93.8562 70.0764 90.1357 69.4416 89.3463 67.6862C87.9553 64.584 83.9036 64.1424 83.5559 68.2107Z" fill="white"/>
<path d="M78.2356 68.9117C75.1499 78.4061 73.102 88.2979 76.5354 92.0681C79.9689 95.8382 83.9819 99.36 88.2157 99.912C91.2793 100.304 85.1356 94.944 85.1356 94.944C85.1356 94.944 96.7276 90.0477 87.9232 83.225C90.0981 80.0841 88.42 71.7821 89.0879 68.4977C89.7558 65.2133 81.1005 60.0686 78.2356 68.9117Z" fill="white"/>
<path d="M86.493 57.2038C86.2501 56.3427 88.701 56.0998 90.1307 54.5211C90.9918 56.0115 88.8721 59.3069 88.8721 59.3069C88.8721 59.3069 86.9291 58.7604 86.493 57.2038Z" fill="#263238"/>
<path d="M80.5143 65.1691C80.4425 63.4689 78.9356 61.675 80.0064 58.9812C80.5038 57.7773 81.3834 56.7704 82.5097 56.116C83.636 55.4616 84.9463 55.196 86.2385 55.3601C87.4727 55.5211 88.6114 56.1096 89.4566 57.0234C90.3017 57.9371 90.7999 59.1182 90.8643 60.3612C91.052 62.7458 87.7289 65.0146 88.165 67.2943C88.6011 69.5741 80.5143 65.1691 80.5143 65.1691Z" fill="white"/>
<path d="M86.9788 55.5202C86.2446 56.304 88.7231 57.6178 89.943 57.6398C89.2437 56.5981 88.1906 55.8451 86.9788 55.5202Z" fill="#E0E0E0"/>
<path d="M76.8059 114.126H76.7286C75.2713 114.098 74.0238 113.16 73.2952 111.559C73.2147 111.375 73.2107 111.166 73.2842 110.978C73.3577 110.791 73.5026 110.641 73.6871 110.56C73.8716 110.48 74.0805 110.476 74.2678 110.549C74.4552 110.623 74.6057 110.767 74.6862 110.952C75.172 112.017 75.9117 112.608 76.7728 112.608C77.2989 112.571 77.8046 112.389 78.2334 112.082C78.6622 111.775 78.9974 111.355 79.2016 110.869C80.2449 108.783 79.5604 105.868 77.3689 103.069C73.389 97.98 73.4001 94.2374 74.1121 92.0294C74.7801 89.9318 76.2594 88.6236 77.3469 88.3034C77.5379 88.2463 77.7438 88.2674 77.9193 88.3622C78.0948 88.4569 78.2254 88.6174 78.2825 88.8085C78.3396 88.9995 78.3185 89.2054 78.2237 89.3809C78.129 89.5564 77.9685 89.687 77.7774 89.7441C77.1978 89.9208 76.0773 90.815 75.5694 92.5041C74.9677 94.3864 75.0174 97.5936 78.5778 102.164C81.1336 105.426 81.8898 108.943 80.5706 111.548C80.247 112.287 79.7227 112.92 79.0572 113.376C78.3917 113.832 77.6117 114.091 76.8059 114.126Z" fill="white"/>
<path d="M76.7992 114.126C75.3585 114.126 74.0392 113.199 73.3105 111.559C73.2554 111.382 73.2673 111.191 73.3441 111.022C73.4209 110.853 73.5572 110.718 73.727 110.643C73.8968 110.568 74.0883 110.558 74.265 110.615C74.4416 110.672 74.5911 110.792 74.685 110.952C75.2867 112.282 76.3134 112.873 77.4174 112.536C77.6077 112.478 77.8135 112.497 77.9895 112.59C78.1655 112.683 78.2973 112.843 78.3558 113.033C78.4144 113.223 78.3949 113.429 78.3018 113.605C78.2086 113.781 78.0493 113.913 77.859 113.971C77.5155 114.076 77.1582 114.128 76.7992 114.126Z" fill="#E0E0E0"/>
<path opacity="0.2" d="M71.6771 62.1994C72.1952 65.2368 72.5105 68.3053 72.621 71.3846C75.083 67.9733 77.8816 61.7743 77.727 58.8818L71.6771 62.1994Z" fill="black"/>
<path d="M86.9121 71.5337L89.1201 68.5473L93.2049 73.0848C93.2049 73.0848 90.4835 75.5357 87.6352 75.7785L87.2157 75.072C86.8977 74.5447 86.7051 73.9515 86.6524 73.3381C86.5998 72.7247 86.6886 72.1074 86.9121 71.5337Z" fill="#FFC3BD"/>
<path d="M93.2273 68.3321L94.4362 70.0874C94.7017 70.4708 94.8049 70.9436 94.7232 71.4027C94.6415 71.8619 94.3816 72.2701 94.0001 72.5383L93.2218 73.0903L89.137 68.5529L91.0745 67.7193C91.4489 67.5571 91.8679 67.5295 92.2603 67.6412C92.6528 67.7529 92.9944 67.997 93.2273 68.3321Z" fill="#FFC3BD"/>
<path d="M79.5983 59.8203L79.245 60.8635L78.8751 61.9675C78.6378 62.7183 78.3949 63.4745 78.1851 64.2307C77.738 65.7432 77.3682 67.2557 77.048 68.7461C76.7536 70.1642 76.5581 71.601 76.4629 73.0462C76.3806 74.1855 76.4755 75.3308 76.7444 76.441L75.8667 75.1272C75.6079 74.8749 75.2855 74.6975 74.9339 74.6139C74.7517 74.6139 74.7407 74.6139 74.8124 74.6525C75.1772 74.7214 75.5517 74.7214 75.9164 74.6525C77.0656 74.4916 78.1993 74.2349 79.3057 73.8852C80.5146 73.5375 81.7511 73.1124 82.9986 72.6763L86.7467 71.3239L86.8239 71.2963C87.3355 71.1101 87.8959 71.1075 88.4091 71.2891C88.9224 71.4707 89.3565 71.8251 89.6371 72.2917C89.9176 72.7582 90.0272 73.3078 89.947 73.8463C89.8668 74.3848 89.6019 74.8786 89.1975 75.2431C88.119 76.2168 86.9835 77.1255 85.7972 77.9645C84.6049 78.8238 83.3645 79.6144 82.0823 80.3326C80.694 81.1249 79.2269 81.7706 77.7049 82.2591C76.74 82.5739 75.7377 82.7595 74.7241 82.8111C74.0005 82.8408 73.2765 82.7607 72.5768 82.5737C71.5619 82.3042 70.6328 81.7798 69.8775 81.0502C69.5394 80.7213 69.2661 80.3318 69.0716 79.902L68.9999 79.7364C68.086 77.6324 67.6 75.3675 67.5702 73.0738C67.5702 72.036 67.5702 71.0314 67.6254 70.0488C67.6806 69.0663 67.8186 68.1113 67.9566 67.1674C68.2422 65.3168 68.6366 63.4847 69.1379 61.6805C69.3863 60.7918 69.6457 59.9086 69.9438 59.0364C70.0928 58.6003 70.2419 58.1643 70.4019 57.7282C70.562 57.2921 70.7276 56.8836 70.9539 56.3647C71.4091 55.2381 72.286 54.3336 73.3979 53.8436C74.5099 53.3536 75.7691 53.3169 76.9077 53.7413C78.0464 54.1656 78.9744 55.0176 79.4944 56.1158C80.0144 57.214 80.0854 58.4718 79.6921 59.6215L79.5983 59.8203Z" fill="#FFC3BD"/>
<path d="M80.0402 67.0294C78.064 69.9329 82.883 75.0223 84.7598 76.4851C84.7598 76.4851 84.2685 80.2553 86.1784 80.9011C87.0064 81.1937 86.6421 78.6931 87.0837 77.0371C87.5253 75.3811 85.7644 71.6882 85.8031 69.7673C85.8528 66.4111 82.3255 63.6566 80.0402 67.0294Z" fill="#263238"/>
<path d="M82.5079 57.0327C82.7453 56.1715 80.2999 55.9287 78.8703 54.3499C78.0036 55.8403 80.1233 59.1358 80.1233 59.1358C80.1233 59.1358 82.0719 58.5893 82.5079 57.0327Z" fill="#263238"/>
<path opacity="0.6" d="M82.3258 57.7226C82.0498 57.7226 80.9017 58.2084 79.1573 55.5146C78.7489 56.7401 80.5925 59.1744 80.5925 59.1744C80.5925 59.1744 82.0829 59.0916 82.3258 57.7226Z" fill="white"/>
<path d="M87.0013 56.8118C87.2814 56.6884 87.5864 56.6321 87.8922 56.6474C88.1979 56.6627 88.4958 56.7493 88.7621 56.9001C89.0713 57.1099 88.5469 57.5956 88.2101 57.5791C87.8734 57.5625 86.5265 57.0381 87.0013 56.8118Z" fill="#263238"/>
<path d="M87.4262 58.7383C86.876 58.7089 86.3398 58.5541 85.8585 58.2857C85.8366 58.274 85.8202 58.254 85.8129 58.2302C85.8057 58.2064 85.8082 58.1807 85.8199 58.1587C85.8316 58.1368 85.8515 58.1204 85.8754 58.1131C85.8992 58.1059 85.9249 58.1084 85.9468 58.1201C87.1336 58.7218 87.8457 58.6058 88.1217 58.3022C88.2171 58.1779 88.2687 58.0256 88.2687 57.8689C88.2687 57.7123 88.2171 57.5599 88.1217 57.4356C88.1054 57.4174 88.0964 57.3938 88.0964 57.3694C88.0964 57.3449 88.1054 57.3213 88.1217 57.3031C88.1317 57.2961 88.143 57.2912 88.155 57.2888C88.167 57.2864 88.1793 57.2865 88.1912 57.2891C88.2032 57.2917 88.2144 57.2967 88.2243 57.3039C88.2342 57.3111 88.2425 57.3202 88.2487 57.3307C88.3741 57.4874 88.4424 57.6821 88.4424 57.8827C88.4424 58.0834 88.3741 58.2781 88.2487 58.4347C88.1408 58.5405 88.0117 58.6222 87.8699 58.6746C87.7282 58.7269 87.577 58.7486 87.4262 58.7383Z" fill="#263238"/>
<path d="M89.5403 58.8046C89.074 58.7054 88.6385 58.4952 88.2707 58.1918C88.2509 58.1765 88.2381 58.1539 88.235 58.129C88.2319 58.1042 88.2388 58.0791 88.2541 58.0594C88.2695 58.0396 88.2921 58.0268 88.317 58.0236C88.3418 58.0205 88.3669 58.0274 88.3866 58.0428C88.7896 58.3409 89.4409 58.7107 89.6341 58.5948C89.7114 58.5506 89.7059 58.4016 89.6838 58.2857C89.6815 58.2737 89.6816 58.2613 89.6843 58.2493C89.687 58.2374 89.6921 58.2261 89.6994 58.2162C89.7066 58.2064 89.7159 58.1981 89.7265 58.192C89.7371 58.1859 89.7489 58.1821 89.7611 58.1808C89.7732 58.1774 89.7859 58.1769 89.7982 58.1792C89.8106 58.1814 89.8222 58.1865 89.8323 58.1939C89.8424 58.2014 89.8507 58.211 89.8565 58.2221C89.8624 58.2333 89.8656 58.2455 89.866 58.2581C89.9101 58.5083 89.866 58.6739 89.7335 58.7549C89.6748 58.7886 89.608 58.8057 89.5403 58.8046Z" fill="#263238"/>
<path d="M85.3781 55.879C84.9862 55.5643 84.0257 55.8403 83.9926 56.2874C83.9595 56.7346 86.0791 56.4365 85.3781 55.879Z" fill="#263238"/>
<path d="M88.154 56.0391C88.5404 55.879 89.258 56.3316 89.1752 56.696C89.0924 57.0603 87.4585 56.304 88.154 56.0391Z" fill="#263238"/>
<path d="M87.1548 57.5405C87.1596 57.5519 87.1614 57.5642 87.16 57.5765C87.1586 57.5887 87.1541 57.6004 87.1469 57.6103C87.1396 57.6203 87.13 57.6283 87.1188 57.6334C87.1077 57.6386 87.0953 57.6408 87.0831 57.6399C87.0524 57.6377 87.0229 57.6273 86.9977 57.6099C86.9724 57.5924 86.9524 57.5684 86.9396 57.5405C86.9332 57.5298 86.93 57.5175 86.9303 57.505C86.9307 57.4925 86.9345 57.4804 86.9414 57.47C86.9483 57.4596 86.9581 57.4514 86.9694 57.4463C86.9808 57.4412 86.9934 57.4394 87.0058 57.4411C87.0374 57.4423 87.068 57.4522 87.0943 57.4698C87.1207 57.4873 87.1416 57.5118 87.1548 57.5405Z" fill="#263238"/>
<path d="M86.4262 57.281C86.431 57.2923 86.4327 57.3047 86.4313 57.3169C86.4299 57.3292 86.4254 57.3408 86.4182 57.3508C86.411 57.3608 86.4014 57.3687 86.3902 57.3739C86.379 57.3791 86.3667 57.3813 86.3544 57.3803C86.3245 57.3782 86.2956 57.3684 86.2705 57.352C86.2454 57.3356 86.2249 57.313 86.2109 57.2865C86.2045 57.2758 86.2014 57.2634 86.2017 57.251C86.202 57.2385 86.2059 57.2264 86.2128 57.216C86.2197 57.2056 86.2294 57.1974 86.2408 57.1923C86.2522 57.1872 86.2648 57.1854 86.2772 57.1871C86.308 57.1884 86.338 57.1977 86.3642 57.2142C86.3904 57.2306 86.4117 57.2537 86.4262 57.281Z" fill="#263238"/>
<path d="M86.7189 57.8165C86.7253 57.8273 86.7285 57.8396 86.7281 57.8521C86.7278 57.8645 86.7239 57.8767 86.717 57.887C86.7101 57.8974 86.7004 57.9057 86.689 57.9108C86.6776 57.9159 86.665 57.9176 86.6526 57.9159C86.6218 57.9143 86.5921 57.9042 86.5667 57.8867C86.5414 57.8691 86.5214 57.8448 86.5091 57.8165C86.5028 57.8058 86.4996 57.7935 86.4999 57.781C86.5002 57.7685 86.5041 57.7564 86.511 57.746C86.5179 57.7356 86.5276 57.7274 86.539 57.7223C86.5504 57.7172 86.563 57.7154 86.5754 57.7172C86.6062 57.7187 86.6359 57.7289 86.6613 57.7464C86.6866 57.764 86.7066 57.7883 86.7189 57.8165Z" fill="#263238"/>
<path d="M89.5342 57.5184C89.5395 57.5294 89.5417 57.5417 89.5404 57.5538C89.5392 57.566 89.5346 57.5776 89.5272 57.5873C89.5197 57.597 89.5097 57.6045 89.4983 57.6089C89.4869 57.6133 89.4745 57.6144 89.4625 57.6122C89.4325 57.61 89.4037 57.6003 89.3786 57.5839C89.3534 57.5675 89.3329 57.5449 89.3189 57.5184C89.3126 57.5076 89.3094 57.4953 89.3097 57.4828C89.31 57.4704 89.3139 57.4582 89.3208 57.4479C89.3277 57.4375 89.3375 57.4293 89.3488 57.4242C89.3602 57.4191 89.3728 57.4173 89.3852 57.419C89.4168 57.4202 89.4474 57.4301 89.4738 57.4476C89.5001 57.4652 89.521 57.4897 89.5342 57.5184Z" fill="#263238"/>
<path d="M89.0983 57.7944C89.0983 57.8441 89.0983 57.8882 89.032 57.8882C89.0018 57.8872 88.9725 57.8779 88.9472 57.8613C88.9219 57.8448 88.9016 57.8216 88.8885 57.7944C88.8822 57.7836 88.879 57.7713 88.8793 57.7588C88.8796 57.7464 88.8835 57.7342 88.8904 57.7239C88.8973 57.7135 88.907 57.7053 88.9184 57.7002C88.9298 57.6951 88.9424 57.6933 88.9548 57.695C88.9854 57.6972 89.0149 57.7075 89.0401 57.725C89.0654 57.7425 89.0855 57.7665 89.0983 57.7944Z" fill="#263238"/>
<path d="M91.2947 54.0187C92.1148 54.0187 92.7796 53.3539 92.7796 52.5339C92.7796 51.7138 92.1148 51.049 91.2947 51.049C90.4746 51.049 89.8098 51.7138 89.8098 52.5339C89.8098 53.3539 90.4746 54.0187 91.2947 54.0187Z" fill="#263238"/>
<path d="M91.2946 54.3223C90.9409 54.3223 90.5951 54.2174 90.301 54.0209C90.0068 53.8244 89.7776 53.5451 89.6422 53.2183C89.5069 52.8915 89.4715 52.5319 89.5405 52.1849C89.6095 51.838 89.7798 51.5193 90.0299 51.2692C90.2801 51.0191 90.5987 50.8487 90.9457 50.7797C91.2926 50.7107 91.6522 50.7461 91.979 50.8815C92.3058 51.0169 92.5851 51.2461 92.7817 51.5402C92.9782 51.8343 93.0831 52.1801 93.0831 52.5338C93.0816 53.0077 92.8927 53.4618 92.5576 53.7969C92.2225 54.132 91.7685 54.3209 91.2946 54.3223ZM91.2946 51.3581C91.062 51.3581 90.8347 51.427 90.6414 51.5562C90.448 51.6854 90.2973 51.8691 90.2083 52.0839C90.1193 52.2987 90.0961 52.5351 90.1414 52.7632C90.1868 52.9913 90.2988 53.2008 90.4632 53.3652C90.6276 53.5297 90.8371 53.6416 91.0652 53.687C91.2933 53.7324 91.5297 53.7091 91.7445 53.6201C91.9594 53.5311 92.143 53.3804 92.2722 53.1871C92.4014 52.9937 92.4703 52.7664 92.4703 52.5338C92.4725 52.3778 92.4438 52.2229 92.3857 52.078C92.3277 51.9331 92.2415 51.8012 92.1322 51.6898C92.0229 51.5784 91.8926 51.4898 91.7488 51.4291C91.605 51.3684 91.4507 51.3367 91.2946 51.336V51.3581Z" fill="white"/>
<path d="M79.1848 38.6399C82.0883 35.4163 80.2888 32.3195 80.2888 32.3195C80.2888 32.3195 90.1364 31.7675 91.2736 29.8852C90.1309 26.0212 86.0461 22.9355 79.1682 25.6238C72.2903 28.312 75.387 38.3971 75.387 38.3971L79.1848 38.6399Z" fill="#263238"/>
<path d="M183.695 195.64L181.763 191.058C181.697 190.973 181.664 190.866 181.671 190.758C181.678 190.651 181.725 190.549 181.802 190.473L185.18 187.272C185.48 187.063 185.818 186.915 186.176 186.838C186.533 186.761 186.902 186.756 187.262 186.822C187.621 186.889 187.964 187.027 188.27 187.227C188.576 187.427 188.839 187.686 189.044 187.989C189.993 189.391 190.479 190.865 192.052 192.168C194.553 194.249 193.708 193.415 197.385 194.409C199.593 195.005 199.405 197.373 198.395 197.324C193.802 197.086 189.651 196.965 185.042 196.22C184.55 196.148 184.085 195.948 183.695 195.64Z" fill="#263238"/>
<path d="M174.002 185.941C179.633 184.164 203.739 183.314 200.763 165.517L179.036 164.027C179.036 164.027 148.953 175.067 145.624 188.823C141.357 206.454 183.784 197.191 183.784 197.191C185.92 196.694 187.477 193.918 187.184 190.733C187.184 190.722 185.18 185.836 174.002 185.941Z" fill="#92E3A9"/>
<path opacity="0.2" d="M174.002 185.941C179.633 184.164 203.739 183.314 200.763 165.517L179.036 164.027C179.036 164.027 148.953 175.067 145.624 188.823C141.357 206.454 183.784 197.191 183.784 197.191C185.92 196.694 187.477 193.918 187.184 190.733C187.184 190.722 185.18 185.836 174.002 185.941Z" fill="black"/>
<path d="M207.2 196.253L205.091 191.748C205.018 191.668 204.978 191.564 204.978 191.456C204.978 191.348 205.018 191.243 205.091 191.163L208.342 187.851C208.633 187.629 208.966 187.466 209.32 187.373C209.674 187.28 210.044 187.259 210.406 187.31C210.769 187.362 211.118 187.485 211.433 187.673C211.747 187.86 212.022 188.109 212.239 188.403C213.244 189.772 213.79 191.224 215.408 192.466C217.991 194.453 217.102 193.653 220.823 194.497C223.075 195.011 222.954 197.39 221.927 197.373C217.329 197.313 213.172 197.373 208.541 196.761C208.058 196.709 207.596 196.534 207.2 196.253Z" fill="#263238"/>
<path d="M198.925 186.891C204.478 184.904 217.29 181.238 210.23 163.028L187.085 165.412C187.085 165.412 166.771 176.817 163.967 190.7C160.379 208.485 207.343 197.793 207.343 197.793C209.457 197.213 210.909 194.381 210.495 191.207C210.495 191.207 210.087 186.361 198.925 186.891Z" fill="#92E3A9"/>
<path d="M180.715 129.218C179.867 131.082 178.803 132.84 177.546 134.456C176.389 135.955 175.131 137.373 173.781 138.701C172.501 139.993 171.204 141.174 169.967 142.306C168.731 143.437 167.56 144.514 166.556 145.557L166.191 145.938C165.781 146.367 165.271 146.687 164.707 146.871C162.631 147.525 160.474 147.884 158.298 147.936C156.343 148 154.386 147.926 152.441 147.715C150.542 147.506 148.682 147.207 146.849 146.821C145.008 146.437 143.189 145.953 141.401 145.369C140.845 145.181 140.374 144.801 140.071 144.299C139.767 143.796 139.651 143.203 139.743 142.623C139.835 142.043 140.128 141.514 140.572 141.13C141.016 140.746 141.581 140.531 142.168 140.523H142.279C143.968 140.523 145.751 140.523 147.473 140.479C149.195 140.434 150.918 140.374 152.596 140.236C154.226 140.128 155.849 139.933 157.459 139.651C158.854 139.427 160.216 139.034 161.516 138.48L159.672 139.794C160.859 138.237 162.074 136.874 163.255 135.593C164.436 134.313 165.573 133.104 166.639 131.923C167.704 130.741 168.681 129.577 169.537 128.417C170.361 127.324 171.099 126.169 171.745 124.962L171.789 124.885C172.363 123.699 173.386 122.79 174.63 122.358C175.875 121.925 177.241 122.005 178.427 122.58C179.612 123.155 180.521 124.177 180.954 125.422C181.386 126.666 181.306 128.032 180.731 129.218H180.715Z" fill="#FFB573"/>
<path d="M181.747 123.974C180.461 119.944 176.426 114.49 166.964 129.417C169.172 134.892 177.861 140.252 177.861 140.252C177.861 140.252 184.805 133.551 181.747 123.974Z" fill="#263238"/>
<path d="M144.734 142.179L141.146 137.763L137.249 143.382C137.249 143.382 140.986 146.998 143.227 145.325L144.734 142.179Z" fill="#FFB573"/>
<path d="M135.241 137.084L134.209 139.292C134.011 139.716 133.969 140.196 134.092 140.648C134.214 141.099 134.492 141.493 134.877 141.759L137.228 143.377L141.125 137.757L137.907 136.162C137.672 136.045 137.416 135.976 137.154 135.959C136.892 135.942 136.629 135.977 136.381 136.063C136.132 136.149 135.904 136.284 135.708 136.459C135.512 136.634 135.354 136.846 135.241 137.084Z" fill="#FFB573"/>
<path d="M177.436 119.193C185.352 117.272 188.758 117.046 194.548 116.886C196.176 116.833 197.797 117.112 199.313 117.705C200.829 118.299 202.209 119.194 203.369 120.337C204.528 121.48 205.443 122.847 206.058 124.355C206.673 125.862 206.975 127.479 206.946 129.107C206.769 147.831 209.927 158.706 210.258 163.028C197.893 171.12 179.953 171.032 176.641 167.714C169.714 153.555 170.382 136.278 170.376 129.025C170.376 125.1 173.329 120.187 177.436 119.193Z" fill="#263238"/>
<path d="M190.319 106.21C190.192 112.542 191.793 114.314 193.079 118.117C192.527 120.59 186.262 123.604 181.156 124.934C177.937 123.278 177.794 120.518 178.721 119.839C181.967 117.847 182.95 117.504 181.481 114.06L190.319 106.21Z" fill="#FFB573"/>
<path opacity="0.2" d="M186.621 110.4L184.557 111.338L181.476 114.071C181.712 114.595 181.897 115.14 182.028 115.699C183.734 115.335 185.556 114.259 186.08 112.851C186.41 112.074 186.594 111.243 186.621 110.4Z" fill="black"/>
<path d="M174.399 92.6146C169.647 94.4859 170.381 100.315 174.582 104.759C178.225 99.1337 174.399 92.6146 174.399 92.6146Z" fill="#263238"/>
<path d="M190.755 98.085C190.932 104.367 191.351 108.021 188.476 111.499C184.153 116.709 176.16 114.474 174.124 108.352C172.274 102.832 172.296 93.4979 178.203 90.5116C179.511 89.8549 180.964 89.5403 182.427 89.5971C183.89 89.654 185.314 90.0804 186.568 90.8366C187.821 91.5928 188.862 92.6542 189.595 93.9217C190.327 95.1892 190.726 96.6215 190.755 98.085Z" fill="#FFB573"/>
<path d="M190.535 105.222C187.162 105.543 185.92 100 186.621 98.0077C187.322 96.015 187.935 94.1051 185.009 94.9883C182.084 95.8715 176.47 98.9958 173.494 97.1521C170.365 95.2091 168.366 89.5566 172.39 87.2161C176.415 84.8756 178.932 87.4148 178.932 87.4148C178.932 87.4148 182.796 82.502 189.883 84.561C194.183 85.814 192.522 88.8887 192.522 88.8887C192.522 88.8887 198.003 90.3956 196.104 96.2965C194.476 101.325 192.009 101.397 190.535 105.222Z" fill="#263238"/>
<path d="M193.802 103.809C193.635 104.572 193.318 105.294 192.87 105.933C192.422 106.573 191.851 107.117 191.191 107.535C189.409 108.639 187.918 107.193 187.913 105.211C187.913 103.434 188.818 100.707 190.844 100.403C192.87 100.1 194.2 101.921 193.802 103.809Z" fill="#FFB573"/>
<path d="M181.935 102.76C182.018 103.263 181.819 103.715 181.488 103.765C181.157 103.815 180.82 103.45 180.737 102.948C180.654 102.446 180.859 101.993 181.184 101.938C181.51 101.883 181.852 102.258 181.935 102.76Z" fill="#263238"/>
<path d="M175.343 103.539C175.426 104.047 175.227 104.494 174.896 104.549C174.565 104.604 174.228 104.234 174.145 103.726C174.062 103.219 174.261 102.771 174.592 102.722C174.923 102.672 175.26 103.036 175.343 103.539Z" fill="#263238"/>
<path d="M177.43 102.711C177.43 102.711 176.762 105.802 175.73 107.403C176.762 108.093 178.219 107.48 178.219 107.48L177.43 102.711Z" fill="#ED893E"/>
<path d="M180.637 108.772C181.189 108.62 181.704 108.355 182.149 107.994C182.593 107.633 182.958 107.183 183.22 106.674C183.237 106.638 183.237 106.596 183.223 106.559C183.208 106.521 183.18 106.491 183.143 106.475C183.107 106.459 183.065 106.458 183.028 106.473C182.991 106.487 182.961 106.516 182.944 106.553C182.642 107.11 182.211 107.589 181.689 107.949C181.166 108.308 180.565 108.539 179.936 108.623C179.917 108.625 179.898 108.632 179.881 108.642C179.864 108.652 179.85 108.666 179.838 108.682C179.827 108.698 179.819 108.716 179.815 108.735C179.811 108.755 179.811 108.775 179.815 108.794C179.817 108.813 179.824 108.832 179.834 108.849C179.844 108.867 179.858 108.881 179.873 108.893C179.889 108.905 179.908 108.914 179.927 108.918C179.946 108.923 179.966 108.924 179.986 108.921C180.206 108.885 180.423 108.835 180.637 108.772Z" fill="#263238"/>
<path d="M183.232 99.9453C183.282 99.9306 183.327 99.9041 183.365 99.868C183.393 99.8402 183.415 99.8072 183.43 99.7707C183.446 99.7342 183.454 99.695 183.454 99.6555C183.454 99.6159 183.446 99.5767 183.43 99.5402C183.415 99.5038 183.393 99.4707 183.365 99.4429C183.027 99.1024 182.613 98.8479 182.156 98.7009C181.7 98.554 181.215 98.5188 180.743 98.5984C180.704 98.6068 180.668 98.6228 180.636 98.6456C180.604 98.6684 180.576 98.6974 180.556 98.7308C180.535 98.7643 180.522 98.8017 180.516 98.8405C180.51 98.8794 180.512 98.9191 180.522 98.9572C180.54 99.0343 180.588 99.1011 180.655 99.1434C180.722 99.1857 180.803 99.2001 180.881 99.1835C181.256 99.1264 181.639 99.1592 181.999 99.2792C182.358 99.3991 182.685 99.6028 182.951 99.8735C182.988 99.908 183.033 99.9327 183.082 99.9452C183.131 99.9578 183.183 99.9578 183.232 99.9453Z" fill="#263238"/>
<path d="M172.716 100.961C172.765 100.956 172.812 100.939 172.852 100.911C172.893 100.883 172.926 100.845 172.948 100.801C173.114 100.464 173.358 100.171 173.659 99.9462C173.96 99.7217 174.311 99.5719 174.681 99.5092C174.72 99.5057 174.758 99.4945 174.793 99.4762C174.828 99.458 174.859 99.433 174.884 99.4027C174.909 99.3724 174.928 99.3374 174.94 99.2998C174.951 99.2622 174.955 99.2227 174.952 99.1835C174.943 99.1038 174.904 99.0307 174.842 98.98C174.78 98.9294 174.7 98.9053 174.62 98.913C174.15 98.9833 173.704 99.166 173.32 99.4457C172.935 99.7253 172.624 100.094 172.412 100.519C172.375 100.59 172.368 100.673 172.392 100.75C172.416 100.826 172.469 100.89 172.539 100.928C172.594 100.956 172.655 100.968 172.716 100.961Z" fill="#263238"/>
<path d="M204.633 124.388C204.912 125.811 205.032 127.26 204.992 128.71C204.955 130.005 204.832 131.296 204.622 132.574C204.223 134.985 203.613 137.357 202.8 139.662C202.022 141.922 201.081 144.122 199.985 146.247C199.433 147.318 198.848 148.383 198.169 149.438C197.46 150.56 196.67 151.63 195.807 152.639L195.641 152.827C195.518 152.967 195.383 153.096 195.238 153.213C193.921 154.242 192.409 154.993 190.794 155.421C189.488 155.768 188.152 155.989 186.804 156.084C184.398 156.236 181.984 156.154 179.594 155.841C175.077 155.259 170.636 154.193 166.346 152.661C165.781 152.458 165.308 152.056 165.017 151.53C164.725 151.004 164.635 150.39 164.763 149.803C164.89 149.215 165.227 148.694 165.71 148.336C166.194 147.979 166.791 147.809 167.39 147.859H167.478C169.531 148.024 171.684 148.19 173.771 148.278C175.857 148.367 177.949 148.422 179.981 148.361C181.923 148.334 183.859 148.15 185.771 147.809C186.58 147.664 187.374 147.44 188.139 147.141C188.621 146.972 189.061 146.703 189.431 146.352L188.879 146.904C189.362 146.196 189.801 145.458 190.193 144.696C190.612 143.868 191.043 143.001 191.424 142.107C192.198 140.307 192.869 138.464 193.433 136.587C193.994 134.758 194.422 132.891 194.714 131.001C194.991 129.419 195.045 127.806 194.874 126.209V126.044C194.761 125.401 194.777 124.742 194.919 124.105C195.061 123.468 195.328 122.865 195.703 122.331C196.078 121.797 196.555 121.342 197.106 120.992C197.657 120.642 198.271 120.404 198.914 120.292C199.557 120.18 200.216 120.195 200.853 120.337C201.49 120.479 202.093 120.746 202.627 121.121C203.161 121.496 203.616 121.973 203.966 122.524C204.316 123.075 204.554 123.69 204.666 124.333L204.633 124.388Z" fill="#FFB573"/>
<path d="M125.857 198.405C115.546 199.079 106.697 191.853 107.917 179.317C113.559 190.291 122.264 197.208 125.857 198.405Z" fill="#263238"/>
<path opacity="0.1" d="M125.856 198.406C115.7 196.501 108.915 187.305 113.204 175.464C115.953 187.492 122.671 196.352 125.856 198.406Z" fill="#263238"/>
<path opacity="0.1" d="M125.857 198.405C116.097 201.817 105.637 197.224 103.457 184.826C111.83 193.89 122.076 198.218 125.857 198.405Z" fill="#263238"/>
<path d="M155.146 152.192C155.146 152.192 160.225 178.026 155.842 196.904C158.74 196.904 159.154 199.951 157.42 201.673H122.032C121.396 201.673 120.767 201.544 120.182 201.294C119.598 201.044 119.07 200.678 118.631 200.219C118.192 199.759 117.851 199.215 117.628 198.62C117.405 198.024 117.305 197.39 117.334 196.755C117.654 189.54 120.608 179.516 129.053 175.608C131.189 169.056 136.135 155.769 133.949 148.107C131.763 140.445 141.81 133.187 149.593 138.552C154.671 136.753 163.719 129.891 166.313 137.658C168.908 145.425 155.146 152.192 155.146 152.192Z" fill="#263238"/>
<path d="M159.463 149.592C163.255 148.256 169.481 147.693 165.788 141.958C159.38 142.46 159.463 149.592 159.463 149.592Z" fill="#263238"/>
<path opacity="0.2" d="M141.959 199.52H141.887C141.824 199.501 141.771 199.458 141.74 199.4C141.709 199.342 141.703 199.274 141.721 199.211C141.807 198.843 141.802 198.46 141.706 198.094C141.61 197.728 141.426 197.392 141.169 197.114C140.065 195.728 137.78 194.873 135.649 195.038C135.608 195.041 135.567 195.034 135.529 195.017C135.491 194.999 135.459 194.972 135.434 194.939C135.41 194.905 135.394 194.866 135.389 194.824C135.383 194.783 135.387 194.741 135.401 194.702C139.05 184.826 132.994 178.743 132.934 178.694C132.892 178.646 132.869 178.585 132.871 178.522C132.872 178.459 132.898 178.399 132.942 178.354C132.986 178.309 133.046 178.283 133.109 178.28C133.172 178.278 133.234 178.299 133.281 178.34C133.348 178.401 139.486 184.55 135.992 194.53C138.2 194.475 140.408 195.364 141.567 196.81C141.879 197.147 142.102 197.557 142.216 198.003C142.33 198.448 142.331 198.915 142.218 199.36C142.2 199.413 142.164 199.457 142.117 199.486C142.07 199.515 142.014 199.527 141.959 199.52Z" fill="white"/>
<path d="M162.367 134.373C159.866 134.048 157.857 135.936 160.065 136.951C162.273 137.967 160.407 135.88 161.522 136.615C162.637 137.349 163.89 137.641 164.133 136.951C164.376 136.261 163.901 136.079 163.642 135.66C163.382 135.24 164.878 136.007 164.569 135.516C164.004 134.873 163.218 134.465 162.367 134.373Z" fill="white"/>
<path d="M163.111 141.185C165.694 143.117 164.767 145.75 167.273 145.049C168.482 144.701 168.736 141.24 166.572 139.529C165.821 140.026 164.889 138.801 164.889 138.801C164.889 138.801 164.441 140.633 163.111 141.185Z" fill="#ED847E"/>
<path d="M160.08 142.206C159.799 142.206 159.616 142.206 159.589 142.206C159.556 142.203 159.524 142.193 159.496 142.177C159.467 142.162 159.441 142.14 159.421 142.114C159.4 142.089 159.385 142.059 159.376 142.028C159.367 141.996 159.364 141.963 159.368 141.93C159.376 141.866 159.409 141.807 159.459 141.766C159.51 141.725 159.574 141.705 159.639 141.71C159.672 141.71 162.813 142.013 164.264 139.761C164.372 139.608 164.447 139.434 164.484 139.251C164.521 139.068 164.52 138.878 164.48 138.696C164.235 138.053 163.779 137.512 163.188 137.161C163.132 137.128 163.091 137.074 163.075 137.011C163.058 136.948 163.067 136.881 163.1 136.824C163.116 136.796 163.138 136.771 163.164 136.751C163.19 136.731 163.22 136.717 163.252 136.709C163.284 136.7 163.317 136.699 163.35 136.703C163.382 136.708 163.414 136.719 163.442 136.736C164.15 137.152 164.688 137.805 164.96 138.58C165.017 138.828 165.022 139.085 164.974 139.335C164.927 139.584 164.828 139.822 164.684 140.031C163.42 141.975 161.101 142.206 160.08 142.206Z" fill="white"/>
<path d="M166.153 139.899C165.325 139.899 164.558 138.795 164.497 138.668C164.474 138.642 164.457 138.61 164.447 138.577C164.436 138.543 164.433 138.507 164.438 138.473C164.443 138.438 164.454 138.404 164.473 138.374C164.491 138.344 164.516 138.318 164.545 138.299C164.574 138.279 164.607 138.266 164.642 138.26C164.677 138.254 164.712 138.255 164.747 138.264C164.781 138.273 164.812 138.289 164.84 138.311C164.867 138.333 164.89 138.361 164.906 138.392C165.088 138.651 165.701 139.397 166.17 139.397C166.231 139.397 166.429 139.397 166.634 139.027C166.666 138.97 166.721 138.928 166.784 138.911C166.848 138.894 166.916 138.903 166.973 138.936C167.03 138.969 167.072 139.023 167.089 139.087C167.106 139.15 167.097 139.218 167.064 139.275C166.988 139.448 166.865 139.597 166.711 139.706C166.556 139.815 166.375 139.88 166.186 139.893L166.153 139.899Z" fill="white"/>
<path d="M145.966 138.651C143.841 136.764 139.999 138.861 140.446 141.754C140.893 144.646 149.742 142.002 145.966 138.651Z" fill="white"/>
<path d="M145.293 138.988C144.868 138.342 143.825 138.905 143.792 139.827C143.759 140.749 146.049 140.131 145.293 138.988Z" fill="#263238"/>
<path d="M147.351 137.967C147.18 138.718 148.306 139.071 149.007 138.48C149.708 137.89 147.661 136.631 147.351 137.967Z" fill="#263238"/>
<path d="M137.321 141.643C136.709 136.438 127.821 147.036 128.429 153.721C129.036 160.406 134.892 159.694 136.548 159.191C138.204 158.689 137.879 146.28 137.321 141.643Z" fill="#263238"/>
<path opacity="0.8" d="M137.321 141.643C136.709 136.438 127.821 147.036 128.429 153.721C129.036 160.406 134.892 159.694 136.548 159.191C138.204 158.689 137.879 146.28 137.321 141.643Z" fill="white"/>
<path d="M153.529 201.684H144.84C144.023 199.636 139.684 188.47 140.209 183.617C139.697 184.073 139.297 184.639 139.039 185.273C138.907 184.654 138.94 184.01 139.134 183.407C139.327 182.804 139.675 182.262 140.143 181.834C139.723 181.575 138.845 182.028 138.845 182.028C138.932 181.634 139.098 181.262 139.332 180.933C139.566 180.605 139.865 180.328 140.209 180.118C139.982 179.879 139.795 179.605 139.657 179.306C137.073 174.416 138.735 168.41 143.239 165.192C145.972 163.232 149.151 163.309 149.863 169.216C150.575 175.122 147.44 191.533 150.57 198.897C152.607 198.599 153.33 200.834 153.529 201.684Z" fill="white"/>
<path opacity="0.2" d="M147.01 153.953C144.609 153.953 142.218 153.235 141.17 151.905C141.13 151.853 141.112 151.787 141.12 151.722C141.128 151.657 141.162 151.598 141.214 151.557C141.266 151.518 141.331 151.5 141.395 151.507C141.46 151.514 141.52 151.546 141.562 151.596C143.218 153.716 148.865 154.113 151.608 152.302C151.635 152.284 151.666 152.272 151.698 152.265C151.73 152.259 151.763 152.259 151.795 152.265C151.827 152.272 151.857 152.285 151.884 152.303C151.912 152.321 151.935 152.344 151.953 152.371C151.971 152.399 151.984 152.429 151.99 152.461C151.996 152.493 151.996 152.526 151.99 152.558C151.984 152.59 151.971 152.621 151.953 152.648C151.934 152.675 151.911 152.698 151.884 152.716C150.408 153.578 148.718 154.007 147.01 153.953Z" fill="white"/>
<path d="M168.863 148.002L163.392 146.391V153.224C163.392 153.224 168.521 154.085 169.42 151.436L168.863 148.002Z" fill="#FFB573"/>
<path d="M158.171 149.178L158.568 151.574C158.643 152.036 158.881 152.457 159.238 152.761C159.595 153.064 160.048 153.231 160.517 153.23H163.393V146.396L159.838 146.904C159.579 146.942 159.329 147.032 159.105 147.167C158.88 147.303 158.684 147.481 158.529 147.693C158.374 147.904 158.263 148.145 158.201 148.399C158.14 148.654 158.129 148.919 158.171 149.178Z" fill="#FFB573"/>
<path d="M202.651 120.298C199.239 117.802 193.068 119.812 191.969 134.048C197.125 136.918 206.04 134.048 206.04 134.048C206.04 134.048 208.712 124.714 202.651 120.298Z" fill="#263238"/>
</svg>
